<?xml version="1.0" standalone="no"?>
<!DOCTYPE svg PUBLIC "-//W3C//DTD SVG 20010904//EN"
 "http://www.w3.org/TR/2001/REC-SVG-20010904/DTD/svg10.dtd">
<svg version="1.0" xmlns="http://www.w3.org/2000/svg"
 width="3750.000000pt" height="3000.000000pt" viewBox="0 0 3750.000000 3000.000000"
 preserveAspectRatio="xMidYMid meet">

<g transform="translate(0.000000,3000.000000) scale(0.100000,-0.100000)"
fill="#000000" stroke="none">
<path d="M36192 29574 c-47 -24 -75 -69 -75 -119 0 -31 12 -64 46 -127 26 -48
47 -90 47 -95 0 -4 -23 -20 -50 -35 l-49 -28 -39 68 c-22 37 -45 77 -51 90
-29 55 -120 78 -182 47 -61 -32 -86 -116 -54 -178 8 -16 45 -65 81 -108 l66
-80 -41 -80 c-37 -72 -41 -88 -41 -152 0 -65 4 -79 41 -147 22 -41 52 -87 66
-102 41 -43 117 -71 211 -76 99 -5 178 9 275 50 231 98 398 282 413 458 6 62
4 69 -36 145 -23 44 -55 94 -72 112 -45 46 -117 74 -215 81 l-84 7 -34 98
c-36 107 -54 139 -88 161 -36 24 -98 29 -135 10z m113 -46 c18 -16 39 -60 69
-148 l43 -125 66 3 c99 5 177 -20 236 -77 27 -26 59 -67 71 -91 124 -240 -227
-599 -590 -603 -139 -2 -214 41 -275 158 -54 103 -44 194 34 310 20 30 29 51
23 59 -5 6 -43 54 -84 106 -41 52 -78 106 -81 119 -12 49 38 111 89 111 38 0
73 -36 125 -131 30 -54 57 -99 61 -99 13 0 178 95 178 102 0 4 -25 52 -55 105
-62 111 -70 156 -32 190 42 39 85 43 122 11z"/>
<path d="M36432 29078 c-17 -17 -15 -70 5 -98 23 -33 33 -40 66 -40 36 0 53
38 37 86 -18 54 -77 83 -108 52z"/>
<path d="M36106 28888 c-20 -28 -20 -32 0 -74 18 -37 58 -63 87 -56 26 5 39
46 26 80 -25 67 -83 93 -113 50z"/>
<path d="M28715 29446 c-75 -34 -125 -110 -125 -187 0 -22 9 -93 21 -157 26
-150 37 -217 35 -218 0 -1 -24 -13 -51 -27 -155 -78 -264 -206 -294 -345 -14
-67 -14 -181 0 -257 37 -201 236 -364 534 -438 123 -30 438 -32 555 -4 275 67
474 209 540 384 19 51 21 74 18 198 -3 133 -5 143 -34 205 -47 98 -153 199
-274 260 -25 12 -46 24 -48 25 -4 3 19 131 44 247 19 91 18 148 -5 200 -34 77
-124 138 -204 138 -46 0 -135 -48 -170 -91 -39 -50 -46 -90 -47 -259 l0 -145
-94 -2 -94 -1 -4 176 -3 177 -30 45 c-37 54 -118 100 -179 100 -22 0 -64 -11
-91 -24z m786 -56 c62 -32 81 -71 76 -155 -3 -38 -14 -119 -26 -180 -12 -60
-24 -133 -28 -161 -5 -50 -5 -51 28 -64 50 -19 149 -79 189 -114 96 -81 138
-174 147 -316 9 -158 -25 -240 -145 -352 -73 -68 -193 -128 -327 -165 -93 -26
-113 -28 -290 -28 -152 0 -206 4 -269 19 -223 53 -395 167 -466 310 -29 56
-30 65 -30 186 0 145 10 185 66 261 44 60 149 140 232 176 37 16 62 34 62 43
0 14 -28 184 -50 309 -15 83 -12 132 10 169 60 98 194 94 254 -8 19 -31 21
-55 24 -220 l4 -186 159 -1 159 0 0 191 c0 218 7 244 76 283 49 28 93 29 145
3z"/>
<path d="M28776 28577 c-43 -43 -47 -144 -8 -197 15 -19 28 -25 58 -25 32 0
42 5 61 34 72 106 -27 272 -111 188z"/>
<path d="M29356 28570 c-44 -53 -46 -122 -6 -188 16 -26 26 -32 54 -32 66 0
107 80 85 163 -23 87 -85 114 -133 57z"/>
<path d="M18010 28804 c0 -6 7 -33 15 -60 25 -82 24 -84 -47 -84 -71 -1 -62
-14 15 -24 85 -11 114 -38 164 -151 28 -63 30 -34 2 47 -11 34 -16 65 -12 69
5 5 32 2 62 -7 29 -8 55 -14 57 -11 2 2 -34 21 -82 42 -91 41 -117 65 -153
145 -11 25 -21 40 -21 34z"/>
<path d="M9144 28672 c-70 -34 -114 -77 -152 -147 -24 -45 -27 -60 -26 -145
l1 -95 86 -195 c48 -107 83 -197 79 -201 -4 -4 -34 -18 -67 -32 -33 -14 -86
-36 -118 -51 l-57 -26 -26 58 c-14 31 -55 125 -90 207 -56 128 -72 157 -114
196 -73 69 -126 92 -219 92 -152 0 -263 -87 -307 -237 -24 -85 -8 -170 48
-257 23 -35 57 -89 77 -119 19 -30 38 -57 41 -60 3 -3 25 -34 47 -70 23 -36
46 -69 50 -75 5 -5 18 -24 28 -42 l19 -32 -40 -48 c-96 -117 -148 -206 -189
-328 -35 -105 -42 -241 -16 -335 20 -76 96 -254 123 -289 10 -13 18 -29 18
-36 0 -19 101 -119 165 -162 98 -67 229 -112 375 -131 83 -11 287 -7 360 7 36
7 76 14 90 16 14 2 45 9 70 15 25 7 50 13 55 14 92 22 372 138 426 176 15 11
31 20 35 20 10 0 71 41 168 114 290 218 468 500 475 753 3 91 -19 178 -74 302
-86 192 -143 263 -273 341 -118 70 -301 120 -438 120 -57 0 -65 2 -74 23 -8
18 -41 148 -55 213 -52 249 -79 320 -149 386 -60 58 -117 81 -211 86 -72 3
-86 0 -141 -26z m190 -66 c26 -8 62 -26 80 -40 54 -41 70 -85 151 -431 14 -60
33 -138 42 -172 l16 -63 73 0 c147 0 304 -31 409 -81 72 -34 178 -127 220
-193 16 -25 32 -46 36 -46 8 0 60 -114 71 -160 5 -19 13 -51 19 -70 14 -54 11
-178 -6 -245 -22 -84 -87 -217 -145 -296 -28 -36 -94 -109 -148 -161 -296
-284 -756 -466 -1147 -453 -240 8 -415 72 -535 195 -47 49 -64 78 -119 206
-54 125 -65 160 -69 221 -12 186 71 369 265 582 12 14 19 29 16 35 -3 6 -52
81 -108 166 -219 334 -223 340 -230 386 -10 71 16 144 69 191 43 38 100 63
143 63 37 0 118 -30 144 -52 38 -35 59 -75 159 -303 50 -115 96 -214 101 -220
6 -6 19 -4 37 7 63 37 194 99 287 134 55 21 101 39 103 40 1 1 -47 113 -107
250 -103 235 -109 252 -108 311 2 51 7 69 32 104 39 55 72 79 132 95 62 16 62
16 117 0z"/>
<path d="M9611 27504 c-73 -53 -63 -197 19 -282 82 -83 169 -75 199 18 26 80
-16 197 -91 253 -36 27 -98 32 -127 11z"/>
<path d="M8828 27160 c-61 -47 -59 -160 4 -254 32 -49 89 -86 131 -86 57 0
104 75 94 150 -19 145 -150 253 -229 190z"/>
<path d="M16045 28613 c6 -5 197 -109 425 -230 669 -357 705 -377 707 -404 4
-36 -42 -83 -94 -98 -44 -13 -78 5 -320 172 -117 80 -213 144 -213 142 0 -2
97 -81 216 -175 l216 -172 -8 -36 c-13 -63 -9 -163 10 -251 23 -106 18 -172
-30 -346 -43 -156 -42 -203 4 -298 33 -66 84 -119 201 -210 l62 -47 45 31 c67
46 146 129 178 189 24 43 28 60 24 102 -9 87 -44 116 -177 150 -88 22 -132 49
-160 99 -17 30 -21 58 -24 180 -3 116 -8 159 -27 221 -30 96 -25 110 67 177
97 70 124 123 106 211 -7 38 -4 36 -758 390 -458 215 -466 218 -450 203z
m1063 -1595 c18 -18 15 -75 -5 -87 -25 -13 -53 5 -53 34 0 16 -6 25 -15 25 -8
0 -15 4 -15 8 0 16 25 32 50 32 14 0 31 -5 38 -12z"/>
<path d="M17743 28549 c-45 -11 -124 -41 -176 -67 l-93 -47 -80 32 c-43 18
-104 38 -134 44 -63 13 -175 7 -240 -13 -43 -13 -41 -14 60 -10 138 5 211 -18
405 -128 79 -45 175 -92 212 -106 113 -40 225 -31 418 33 70 23 76 27 55 35
-33 12 -40 25 -40 76 0 27 -11 64 -29 101 -27 52 -34 59 -68 64 -73 12 -208 6
-290 -14z"/>
<path d="M18228 28441 c3 -42 -1 -69 -12 -91 -15 -32 -15 -32 7 -25 12 3 51 9
87 11 55 5 72 2 112 -19 44 -22 46 -22 36 -4 -18 34 -96 106 -159 147 -34 22
-65 40 -69 40 -3 0 -4 -27 -2 -59z"/>
<path d="M16990 28403 c0 -34 49 -119 106 -181 61 -68 149 -118 224 -128 44
-6 100 8 100 24 0 4 -20 22 -44 39 -24 17 -74 71 -110 119 -88 117 -118 137
-207 142 -63 4 -69 3 -69 -15z"/>
<path d="M33050 28254 c-122 -15 -338 -66 -540 -128 -154 -48 -323 -82 -505
-101 -82 -9 -167 -21 -187 -26 -64 -16 -64 -29 -5 -206 51 -154 53 -158 85
-167 25 -7 32 -14 32 -35 0 -14 13 -231 29 -481 34 -528 38 -544 138 -651 54
-58 109 -91 187 -114 113 -33 151 -25 696 149 272 87 515 168 540 181 64 33
136 109 172 183 25 50 32 80 36 144 9 150 18 131 -307 657 -29 46 -53 88 -54
94 -1 5 15 15 36 23 l37 13 73 -112 c40 -62 83 -129 96 -149 26 -44 36 -45
119 -17 44 15 62 26 62 38 0 10 -30 65 -67 123 -38 58 -113 175 -168 261 -58
91 -107 157 -116 157 -8 0 -43 -9 -77 -21 -52 -18 -62 -24 -62 -44 0 -13 5
-27 10 -30 17 -10 11 -23 -14 -29 -13 -3 -31 -8 -39 -12 -9 -3 -23 6 -37 25
l-22 31 26 31 c14 17 26 37 26 46 0 32 -33 129 -50 147 -19 19 -82 28 -150 20z
m122 -114 c15 -45 14 -50 -1 -64 -58 -52 -358 -180 -611 -260 -267 -85 -616
-154 -642 -128 -19 19 -86 247 -74 253 6 4 45 9 86 13 218 19 396 53 590 111
281 85 555 141 621 127 9 -2 22 -25 31 -52z m6 -208 c19 -26 75 -115 126 -197
l92 -150 -80 0 c-111 0 -185 -35 -294 -139 -79 -75 -129 -106 -176 -106 -13 0
-68 21 -123 48 l-98 47 -125 -1 c-108 -1 -135 -4 -204 -28 -104 -36 -159 -69
-227 -138 l-57 -58 -8 138 c-4 75 -8 166 -8 201 -1 74 -10 68 144 96 140 25
292 67 495 134 225 74 289 98 406 154 52 25 96 46 99 46 3 0 20 -21 38 -47z
m206 -52 l26 -40 -25 -10 c-42 -16 -52 -12 -74 26 -26 43 -26 43 2 54 36 15
43 12 71 -30z m26 -790 c44 -24 -14 -79 -85 -82 -70 -3 -72 40 -4 74 39 20 62
22 89 8z m-961 -314 c18 -21 -1 -51 -40 -65 -67 -23 -118 -7 -98 30 22 42 114
65 138 35z m512 4 c10 -6 19 -15 19 -20 0 -18 -64 -50 -97 -50 -41 0 -43 20
-8 55 26 27 54 31 86 15z"/>
<path d="M18170 28204 c-232 -55 -302 -63 -368 -45 -17 5 -32 7 -32 4 0 -3 14
-32 31 -64 69 -130 179 -169 472 -169 308 0 416 -27 486 -120 l34 -45 -5 80
c-11 178 -128 328 -290 371 -80 21 -207 16 -328 -12z"/>
<path d="M2489 28033 c-20 -23 -99 -292 -92 -312 3 -9 12 -23 20 -32 11 -13
-17 -65 -209 -385 -245 -409 -264 -445 -280 -534 -27 -154 66 -337 208 -408
45 -22 988 -308 1049 -317 140 -23 321 76 392 213 45 85 46 89 64 487 6 138
13 251 14 253 2 2 18 -1 36 -6 l34 -8 1 -167 c1 -92 4 -173 7 -180 6 -17 120
-52 141 -44 12 5 16 22 17 64 1 32 3 69 4 83 1 14 4 128 6 255 l4 229 -55 17
c-83 27 -99 25 -107 -11 -5 -29 -8 -30 -37 -24 -44 9 -46 11 -46 55 0 36 2 39
28 39 16 0 36 6 45 13 18 13 57 116 57 150 0 64 -186 156 -596 292 -214 72
-291 105 -558 244 -107 55 -126 60 -147 34z m77 -62 c18 -17 242 -132 344
-176 56 -24 154 -61 218 -81 258 -80 549 -201 584 -242 13 -15 13 -24 0 -66
l-14 -49 -91 6 c-189 14 -578 115 -857 224 -99 38 -242 108 -269 130 l-25 20
33 114 c19 63 35 117 38 122 6 10 27 9 39 -2z m165 -440 c132 -52 400 -135
564 -175 89 -21 139 -31 266 -51 47 -7 47 -10 34 -267 l-10 -196 -30 25 c-88
73 -199 95 -346 68 -98 -18 -158 -15 -196 10 -12 8 -38 46 -59 85 -49 94 -102
152 -183 200 -143 85 -311 119 -431 87 -30 -9 -56 -14 -58 -12 -4 4 165 285
188 312 l20 23 58 -30 c32 -16 114 -52 183 -79z m987 -387 c19 -6 22 -13 22
-55 0 -49 0 -49 -27 -43 -42 10 -43 12 -43 60 0 46 4 49 48 38z m-1368 -393
c69 -36 34 -83 -45 -61 -77 22 -88 79 -15 80 14 0 41 -8 60 -19z m929 -277
c39 -15 59 -43 46 -64 -10 -17 -78 -11 -112 10 -37 22 -42 44 -15 59 24 14 35
13 81 -5z m-516 -5 c33 -15 53 -57 32 -66 -22 -8 -70 3 -101 24 l-26 17 22 18
c26 21 40 22 73 7z"/>
<path d="M17393 27885 c-71 -30 -85 -152 -22 -185 31 -17 99 12 143 61 41 45
45 70 16 99 -40 40 -84 48 -137 25z m85 -31 c4 -30 -30 -56 -69 -52 -40 4 -50
29 -23 59 25 28 88 23 92 -7z"/>
<path d="M18110 27814 c39 -62 55 -137 41 -189 -23 -85 -63 -129 -193 -216
-113 -74 -218 -162 -218 -181 0 -4 21 7 48 26 26 18 103 62 172 97 182 92 250
171 250 293 0 69 -22 121 -73 174 -54 55 -64 53 -27 -4z"/>
<path d="M18210 27845 c0 -8 9 -39 21 -70 28 -76 93 -139 262 -254 204 -140
256 -206 257 -325 0 -59 0 -59 20 -41 12 11 35 48 53 84 30 62 32 73 32 171 0
130 -25 206 -93 281 -84 94 -150 120 -382 149 -185 24 -170 23 -170 5z"/>
<path d="M17903 27185 c-117 -33 -228 -111 -308 -217 -52 -69 -99 -147 -93
-153 2 -2 24 1 48 6 89 21 158 14 260 -26 106 -41 158 -46 213 -20 74 35 92
126 38 187 -25 28 -36 33 -72 32 -33 -1 -48 -8 -66 -28 -13 -15 -23 -37 -22
-49 1 -17 3 -15 10 9 17 58 102 69 136 18 21 -33 11 -93 -19 -116 -33 -25
-108 -24 -142 3 -48 38 -51 116 -5 165 45 48 143 57 220 20 20 -9 74 -51 120
-92 46 -42 101 -85 124 -97 83 -43 194 -17 253 61 l25 32 -59 -35 c-112 -68
-173 -45 -270 103 -73 111 -114 155 -170 182 -55 27 -155 34 -221 15z"/>
<path d="M35238 24438 c69 -113 92 -154 92 -165 0 -20 -57 -16 -69 5 -9 15
-10 15 -11 -4 0 -12 -6 -27 -14 -33 -8 -7 -18 -26 -21 -43 -4 -17 -31 -57 -61
-89 -47 -51 -54 -64 -54 -99 0 -22 6 -56 14 -74 14 -34 15 -34 57 -25 47 11
79 34 79 57 0 8 -13 30 -30 49 -34 39 -37 63 -12 100 9 15 24 45 32 67 13 35
21 42 51 46 78 13 78 34 -2 151 -60 87 -90 121 -51 57z m-88 -423 c0 -8 -6
-15 -13 -15 -8 0 -14 7 -14 15 0 8 6 15 14 15 7 0 13 -7 13 -15z"/>
<path d="M35345 24408 c-9 -23 13 -96 36 -119 12 -12 22 -19 25 -17 2 2 0 28
-5 57 -9 58 -45 108 -56 79z"/>
<path d="M35431 24395 c14 -16 40 -55 58 -86 35 -59 62 -80 122 -97 35 -9 36
-9 48 25 10 27 10 37 0 49 -19 24 -79 50 -129 58 -32 5 -56 17 -85 44 -30 28
-34 30 -14 7z"/>
<path d="M35680 24299 c7 -11 14 -19 16 -16 7 7 -7 37 -17 37 -6 0 -5 -9 1
-21z"/>
<path d="M35692 24218 c-17 -17 -15 -23 14 -37 24 -10 25 -10 19 11 -10 33
-19 40 -33 26z"/>
<path d="M35520 24192 c0 -32 38 -71 125 -127 46 -29 86 -63 90 -74 11 -35 25
-13 25 40 0 69 -40 112 -135 143 -38 13 -78 27 -87 31 -14 5 -18 2 -18 -13z"/>
<path d="M35340 24175 c0 -16 25 -26 45 -19 26 10 16 29 -15 30 -18 1 -30 -4
-30 -11z"/>
<path d="M35590 24026 c0 -19 14 -64 31 -100 25 -53 30 -74 24 -103 -6 -36 -6
-36 16 -22 37 25 61 79 55 124 -4 32 -14 49 -56 88 -28 26 -56 47 -61 47 -5 0
-9 -15 -9 -34z"/>
<path d="M35537 24013 c-8 -9 -46 -22 -84 -28 l-68 -13 62 -1 c52 -1 66 3 90
23 15 13 25 27 22 30 -3 3 -13 -2 -22 -11z"/>
<path d="M26175 23966 c17 -26 17 -26 -16 -40 l-34 -14 50 1 c38 2 58 -4 85
-22 19 -13 29 -18 23 -11 -21 23 -16 50 10 51 12 1 0 6 -28 11 -27 5 -57 15
-65 22 -33 28 -42 29 -25 2z"/>
<path d="M35287 23925 c-46 -16 -57 -26 -37 -33 8 -3 35 -25 61 -49 35 -32 51
-42 65 -36 17 6 17 8 -5 13 -33 8 -49 34 -32 54 32 38 91 -1 111 -73 6 -22 19
-45 30 -51 29 -15 32 -12 10 10 -13 13 -20 33 -20 60 0 100 -76 144 -183 105z"/>
<path d="M26117 23849 c-74 -25 -127 -59 -195 -122 l-53 -51 -92 3 c-96 3
-164 -14 -197 -47 -13 -14 -13 -15 0 -5 27 19 129 35 183 28 29 -4 91 -15 139
-26 105 -23 200 -24 258 -4 23 8 74 36 112 61 57 38 67 49 54 56 -9 5 -23 25
-31 44 -19 46 -62 84 -94 84 -14 -1 -52 -10 -84 -21z"/>
<path d="M26348 23864 c-4 -3 0 -21 8 -41 8 -19 12 -43 9 -54 -6 -19 -5 -19
35 2 23 12 59 22 81 22 52 0 37 19 -34 45 -77 29 -93 33 -99 26z"/>
<path d="M26474 23721 c-28 -10 -98 -46 -155 -79 -57 -33 -126 -66 -152 -73
l-48 -12 27 -28 c68 -71 147 -74 354 -14 173 51 223 59 268 44 20 -6 45 -18
55 -27 44 -38 3 60 -50 118 -75 85 -188 111 -299 71z"/>
<path d="M25588 23578 c-16 -5 -28 -13 -28 -17 0 -16 79 -82 128 -106 77 -39
202 -36 202 4 0 4 -17 13 -37 20 -21 8 -54 26 -73 41 -88 69 -130 81 -192 58z"/>
<path d="M25025 23485 c6 -2 165 -34 355 -70 190 -36 355 -70 368 -75 48 -21
5 -110 -53 -110 -15 0 -79 16 -142 35 -64 19 -118 34 -119 32 -2 -2 47 -23
109 -46 61 -24 118 -50 125 -59 6 -9 12 -31 12 -49 0 -19 18 -68 46 -120 45
-87 45 -89 53 -218 9 -147 19 -174 81 -228 33 -28 136 -76 195 -90 17 -4 93
121 103 170 8 36 7 55 -3 79 -22 52 -48 64 -148 64 -84 0 -90 2 -117 28 -18
19 -36 57 -54 113 -14 47 -35 98 -46 112 -11 14 -27 41 -35 60 -14 33 -13 37
10 68 61 84 73 135 43 181 -15 22 -33 26 -364 71 -382 53 -434 59 -419 52z
m909 -811 c10 -26 7 -42 -10 -48 -20 -7 -64 32 -57 51 7 19 60 16 67 -3z"/>
<path d="M26550 23471 c-99 -20 -101 -26 -35 -87 37 -35 64 -48 162 -79 186
-60 244 -97 268 -175 l8 -25 13 30 c46 106 -24 272 -138 329 -62 31 -144 33
-278 7z"/>
<path d="M26416 23399 c79 -88 71 -163 -30 -289 -59 -72 -96 -129 -96 -145 0
-5 4 -4 9 3 4 7 48 54 97 105 72 74 93 101 103 139 22 79 -9 162 -72 195 l-32
16 21 -24z"/>
<path d="M25979 23317 c17 -17 13 -45 -8 -57 -47 -25 -68 2 -34 44 15 19 15
19 -7 -1 -28 -27 -31 -74 -5 -103 25 -27 37 -25 74 12 54 55 51 100 -5 111
-18 3 -22 1 -15 -6z"/>
<path d="M14701 23304 c0 -11 3 -14 6 -6 3 7 2 16 -1 19 -3 4 -6 -2 -5 -13z"/>
<path d="M14606 22952 c-48 -180 -91 -331 -96 -336 -12 -12 -68 12 -80 35 -17
31 -11 66 30 171 22 56 38 103 36 105 -2 2 -22 -38 -46 -89 -54 -118 -63 -128
-114 -128 -26 0 -65 -12 -106 -32 -61 -30 -73 -32 -210 -37 -161 -7 -187 -15
-237 -75 -15 -19 -41 -64 -57 -101 l-29 -66 29 -30 c30 -31 115 -77 149 -80
46 -4 67 2 90 26 21 20 25 34 26 82 1 117 32 156 145 179 38 8 92 28 121 44
29 17 60 30 69 30 9 0 38 -18 65 -39 60 -48 97 -58 137 -37 24 12 31 25 40 68
6 29 38 183 72 341 34 159 60 291 57 293 -2 2 -43 -143 -91 -324z m-711 -418
c0 -23 -5 -30 -24 -32 -35 -5 -44 18 -18 44 28 28 42 24 42 -12z"/>
<path d="M26422 22969 c-92 -46 -164 -144 -196 -269 -7 -30 -13 -56 -11 -58 1
-1 25 9 54 23 43 22 64 26 129 25 117 -2 118 -2 151 26 55 46 32 134 -35 134
-18 0 -35 -4 -38 -8 -3 -5 9 -6 26 -4 56 8 79 -55 35 -96 -30 -28 -80 -29
-107 -2 -29 29 -25 74 8 111 23 25 38 33 78 36 43 4 64 -1 135 -32 132 -58
194 -49 244 36 l20 34 -38 -37 c-29 -30 -46 -38 -73 -38 -43 0 -64 11 -129 65
-27 23 -64 50 -82 59 -45 23 -119 20 -171 -5z"/>
<path d="M2636 22906 c4 -11 1 -22 -7 -27 -11 -7 -11 -9 3 -9 9 0 24 -10 32
-22 13 -18 16 -19 16 -5 0 9 6 17 13 17 6 0 3 6 -8 12 -11 6 -28 20 -38 32
-14 18 -16 18 -11 2z"/>
<path d="M1855 22853 c6 -6 99 -61 208 -122 109 -62 197 -119 197 -127 0 -7
-11 -21 -24 -29 -29 -19 -38 -15 -126 47 l-55 40 58 -54 58 -53 4 -90 c3 -68
-1 -109 -17 -168 -27 -104 -21 -133 44 -196 29 -28 56 -51 60 -51 5 0 31 22
58 50 72 72 66 116 -20 145 -28 9 -57 27 -64 38 -8 13 -16 66 -19 124 l-6 103
35 27 c39 29 54 57 47 84 -3 11 -90 61 -226 130 -122 61 -217 107 -212 102z
m361 -658 c10 -25 -7 -40 -23 -20 -7 11 -13 22 -13 27 0 14 30 9 36 -7z"/>
<path d="M2513 22840 c-22 -5 -58 -17 -80 -28 -37 -19 -39 -19 -78 -1 -22 10
-58 18 -80 18 l-40 -1 35 -7 c19 -4 80 -31 135 -61 89 -48 106 -54 155 -53 47
1 157 30 123 32 -7 1 -13 12 -13 26 0 75 -46 97 -157 75z"/>
<path d="M2713 22777 c-1 -32 -1 -32 45 -33 l46 -1 -39 33 c-21 19 -41 34 -44
34 -3 0 -7 -15 -8 -33z"/>
<path d="M2190 22778 c0 -46 117 -139 156 -124 13 5 10 13 -17 45 -19 21 -44
51 -56 65 -23 27 -83 38 -83 14z"/>
<path d="M14680 22750 c-46 -46 -75 -100 -84 -155 -11 -69 23 -141 38 -81 3
14 29 53 57 88 62 76 72 101 64 150 -9 49 -25 48 -75 -2z"/>
<path d="M14807 22743 c15 -54 6 -148 -27 -268 -50 -183 -40 -262 47 -388 25
-36 27 -37 35 -18 4 12 15 21 25 21 10 0 35 11 56 25 33 23 37 30 37 69 0 82
-46 186 -122 273 -25 29 -37 51 -33 62 23 59 11 230 -16 247 -6 3 -7 -5 -2
-23z"/>
<path d="M2665 22685 c-33 -7 -79 -14 -103 -14 l-43 -1 15 -29 c22 -41 73 -61
174 -67 143 -8 170 -14 202 -40 l30 -26 0 29 c-1 47 -35 108 -74 132 -45 28
-123 35 -201 16z"/>
<path d="M2384 22553 c1 -12 -7 -19 -23 -21 -19 -3 -23 0 -17 15 5 16 5 16 -9
-1 -18 -24 -18 -28 -2 -49 11 -14 16 -14 45 -2 34 15 43 44 18 64 -11 9 -14 8
-12 -6z"/>
<path d="M6033 22549 c-64 -25 -134 -99 -157 -166 -20 -57 -20 -104 -1 -303 7
-85 12 -156 10 -158 -7 -7 -227 -24 -233 -18 -3 4 -14 93 -23 199 -18 215 -31
259 -93 319 -53 51 -100 71 -179 76 -151 9 -269 -89 -288 -238 -7 -56 -1 -83
63 -320 25 -93 47 -183 48 -192 0 -3 -24 -21 -52 -39 -127 -77 -246 -198 -298
-299 -36 -70 -53 -152 -52 -250 1 -222 45 -362 149 -472 137 -144 275 -214
543 -275 94 -22 446 -25 555 -5 101 19 197 41 220 52 11 5 38 14 60 21 166 49
385 195 480 319 89 116 117 200 116 349 -1 249 -45 367 -187 500 -74 69 -107
91 -212 143 -123 61 -124 61 -118 92 3 17 8 65 12 106 3 41 7 89 9 105 14 128
16 209 6 256 -25 120 -146 219 -266 218 -35 0 -81 -8 -112 -20z m192 -74 c55
-27 87 -69 100 -131 9 -46 7 -100 -12 -297 -13 -133 -21 -247 -19 -253 2 -5
24 -16 47 -23 78 -23 222 -99 285 -150 74 -60 164 -196 164 -247 0 -9 6 -30
14 -47 20 -45 25 -128 15 -227 -19 -195 -156 -359 -403 -485 -331 -168 -775
-197 -1116 -73 -207 75 -360 208 -409 357 -26 80 -39 314 -21 381 36 134 201
305 379 395 26 13 32 21 28 38 -2 12 -32 130 -67 262 -68 263 -69 290 -25 356
90 137 295 103 340 -56 7 -27 21 -142 30 -255 9 -113 18 -207 20 -209 2 -2 47
4 100 13 53 9 143 16 201 16 l104 0 0 33 c-1 17 -9 124 -19 237 -15 174 -16
212 -5 250 13 44 55 94 99 118 30 17 132 14 170 -3z"/>
<path d="M6152 21458 c-60 -29 -84 -134 -52 -221 45 -119 136 -132 190 -27 38
73 1 213 -64 244 -39 18 -43 19 -74 4z"/>
<path d="M5385 21374 c-49 -52 -57 -150 -20 -228 43 -90 135 -92 181 -4 33 64
6 204 -47 242 -36 25 -86 21 -114 -10z"/>
<path d="M2700 22530 c0 -30 38 -76 105 -126 81 -59 104 -87 114 -137 l7 -32
16 30 c56 106 8 226 -100 254 -70 18 -142 24 -142 11z"/>
<path d="M2667 22484 c6 -61 -13 -89 -91 -133 -83 -48 -87 -65 -6 -25 94 46
120 74 120 129 0 22 -6 50 -14 60 -12 17 -13 13 -9 -31z"/>
<path d="M14378 22479 c-10 -5 -18 -21 -18 -34 0 -29 52 -75 85 -75 25 0 50
32 41 53 -3 9 -5 9 -5 0 -1 -18 -36 -16 -51 2 -18 21 -8 50 17 49 12 0 20 3
17 8 -7 11 -65 10 -86 -3z"/>
<path d="M2548 22260 c-46 -14 -96 -49 -126 -88 -48 -62 -48 -64 -8 -57 26 5
54 1 100 -15 61 -22 66 -22 90 -6 37 24 31 87 -9 86 -5 0 -2 -5 8 -11 44 -26
-6 -84 -52 -60 -25 14 -28 53 -5 75 29 29 80 20 127 -23 70 -63 113 -77 153
-46 18 14 17 15 -8 4 -36 -16 -69 5 -108 69 -16 26 -38 52 -48 59 -28 17 -83
23 -114 13z"/>
<path d="M14657 22238 c-24 -26 -39 -53 -46 -88 -13 -59 -9 -94 26 -245 33
-141 34 -220 5 -269 -26 -43 -13 -47 48 -16 66 34 108 77 130 136 34 93 23
158 -58 324 -25 52 -51 117 -57 145 l-12 50 -36 -37z"/>
<path d="M13851 22189 c18 -46 20 -67 14 -140 -7 -90 0 -120 34 -146 42 -32
112 3 110 55 -2 27 -2 27 -6 2 -9 -50 -70 -68 -97 -28 -57 82 44 164 108 88
46 -55 44 -88 -8 -196 -30 -62 -46 -109 -46 -134 0 -40 26 -82 63 -102 18 -9
18 -7 -6 21 -19 23 -27 44 -27 71 0 34 8 48 59 102 72 78 91 114 91 175 0 112
-139 252 -277 279 l-32 6 20 -53z"/>
<path d="M15027 22210 c8 -32 -5 -65 -39 -100 -25 -25 -27 -29 -8 -17 34 23
50 21 51 -5 0 -14 8 0 19 32 10 30 23 56 29 58 6 2 11 8 11 13 0 6 -8 5 -20
-1 -17 -9 -22 -7 -30 15 -11 30 -20 34 -13 5z"/>
<path d="M14217 22054 c48 -54 102 -103 120 -110 74 -31 161 -8 201 54 16 24
16 24 -22 -2 -82 -55 -149 -43 -241 44 -149 140 -181 148 -58 14z"/>
<path d="M35281 22094 c-61 -16 -101 -42 -131 -84 -19 -27 -73 -181 -125 -356
l-18 -61 -111 -6 c-178 -8 -324 -69 -409 -167 -38 -45 -118 -193 -142 -265
-27 -79 -23 -194 9 -290 25 -74 89 -192 133 -245 127 -153 262 -257 458 -351
132 -64 211 -93 295 -110 30 -5 66 -13 80 -17 54 -13 294 -6 359 11 93 25 195
82 245 138 71 79 158 260 169 353 13 108 -44 290 -128 407 -38 53 -42 70 -22
91 7 7 42 51 77 98 68 90 70 92 100 129 61 74 84 181 55 257 -48 125 -174 189
-295 149 -84 -28 -120 -70 -207 -234 l-77 -147 -88 45 c-48 25 -88 50 -88 55
0 5 34 75 76 155 82 157 97 216 75 284 -19 58 -67 115 -118 141 -63 31 -106
36 -172 20z m128 -82 c58 -29 93 -82 94 -141 0 -45 -10 -71 -92 -232 -51 -99
-91 -182 -89 -184 1 -1 36 -17 75 -33 40 -17 106 -51 148 -77 41 -25 78 -45
82 -45 5 0 48 78 97 173 92 179 113 209 158 233 62 32 165 5 210 -56 23 -31
33 -87 24 -133 -6 -31 -91 -155 -171 -250 -18 -21 -101 -132 -109 -144 -4 -7
2 -22 14 -35 90 -95 170 -276 170 -382 0 -60 -30 -187 -55 -236 -30 -58 -101
-144 -142 -172 -127 -89 -301 -117 -510 -83 -487 79 -939 491 -918 838 4 51
14 82 61 176 64 130 111 183 198 224 86 41 167 57 291 57 l110 0 24 78 c71
228 121 366 142 389 49 53 126 67 188 35z"/>
<path d="M34942 21214 c-72 -50 -103 -184 -53 -225 92 -74 236 111 167 216
-13 19 -25 25 -54 25 -21 0 -48 -7 -60 -16z"/>
<path d="M35535 20931 c-11 -5 -35 -24 -53 -42 -76 -78 -61 -219 24 -219 35 0
99 54 118 99 43 110 -4 196 -89 162z"/>
<path d="M14909 22033 l-47 -4 16 -32 c9 -18 16 -52 16 -76 -1 -41 0 -43 14
-25 19 25 62 116 62 132 0 6 -3 11 -7 10 -5 -1 -29 -3 -54 -5z"/>
<path d="M14534 21940 c-43 -28 -74 -78 -118 -192 -53 -138 -84 -181 -145
-210 l-51 -23 32 -12 c159 -57 348 71 348 234 0 52 -22 223 -29 223 -3 0 -20
-9 -37 -20z"/>
<path d="M20005 20853 c-47 -7 -209 -47 -345 -87 -79 -23 -182 -43 -279 -55
-99 -12 -159 -25 -168 -34 -22 -21 40 -215 72 -227 21 -8 23 -17 29 -122 4
-62 9 -133 11 -158 2 -25 7 -97 10 -160 11 -209 25 -266 86 -327 53 -54 100
-76 175 -81 55 -4 90 6 391 101 183 58 342 111 355 118 81 43 136 123 145 212
9 90 0 110 -192 420 -26 42 -46 79 -44 81 2 2 14 7 26 10 20 7 30 -4 84 -88
43 -67 67 -96 80 -96 34 0 92 29 86 43 -3 8 -38 65 -79 128 -41 63 -89 138
-107 167 -36 56 -40 58 -92 41 -46 -16 -53 -23 -40 -47 9 -17 7 -21 -15 -26
-19 -5 -30 -2 -40 11 -17 23 -17 28 1 43 27 23 10 111 -25 130 -19 10 -67 11
-125 3z m115 -59 c6 -14 10 -31 10 -38 0 -27 -234 -132 -420 -189 -149 -45
-340 -87 -399 -87 -11 0 -65 156 -57 168 3 5 40 12 83 16 120 11 239 34 343
65 157 48 333 88 393 90 32 1 39 -3 47 -25z m7 -147 c12 -17 49 -76 82 -129
l60 -98 -52 0 c-67 -1 -124 -27 -190 -88 -86 -81 -108 -87 -187 -47 -71 36
-129 46 -202 36 -96 -14 -174 -47 -226 -97 -25 -24 -46 -43 -48 -41 -1 1 -5
59 -9 129 l-7 127 23 5 c13 3 51 10 84 17 165 31 459 125 575 185 36 18 67 33
70 33 3 1 15 -14 27 -32z m129 -24 c19 -26 17 -40 -6 -46 -28 -7 -61 40 -39
54 21 13 30 11 45 -8z m30 -534 c9 -16 -16 -38 -53 -45 -25 -5 -34 -3 -39 10
-13 33 73 65 92 35z m-630 -201 c10 -17 -33 -48 -67 -48 -22 0 -29 5 -29 18 0
32 80 57 96 30z m334 2 c13 -8 12 -11 -5 -24 -20 -15 -75 -22 -75 -9 0 3 7 15
17 25 18 20 40 23 63 8z"/>
<path d="M27353 19660 c-18 -10 -39 -33 -48 -49 -27 -53 -19 -96 35 -196 l50
-92 -52 -28 c-60 -33 -53 -38 -119 83 -35 63 -47 77 -86 94 -58 25 -101 18
-147 -25 -72 -68 -58 -132 57 -267 l64 -75 -41 -77 c-32 -62 -41 -92 -44 -144
-4 -59 -1 -72 32 -139 45 -91 75 -128 130 -159 95 -54 225 -58 372 -11 257 81
461 291 472 484 4 62 1 72 -38 146 -23 44 -53 92 -67 107 -40 42 -117 70 -212
77 l-83 6 -14 35 c-7 19 -27 72 -44 118 -26 67 -38 87 -68 107 -45 31 -104 33
-149 5z m130 -42 c13 -13 35 -59 51 -103 15 -44 34 -99 43 -122 l15 -41 97 -4
c111 -4 148 -18 211 -81 55 -54 90 -128 90 -190 0 -247 -348 -513 -649 -495
-79 5 -157 35 -193 75 -36 40 -88 154 -88 194 0 52 31 137 70 196 38 55 42 44
-66 179 -60 74 -74 98 -74 126 0 80 92 118 149 61 15 -16 49 -68 75 -116 27
-48 51 -87 55 -85 3 2 45 25 93 52 l87 49 -31 56 c-101 175 -107 201 -63 246
34 33 96 35 128 3z"/>
<path d="M27607 19172 c-21 -23 -22 -54 -2 -92 27 -53 83 -67 104 -26 18 34 5
81 -31 111 -35 30 -49 31 -71 7z"/>
<path d="M27292 18997 c-34 -15 -31 -76 7 -116 71 -76 137 8 71 91 -24 31 -48
38 -78 25z"/>
<path d="M11444 18565 c4 -16 9 -45 12 -62 l7 -33 -74 -1 -74 -2 60 -7 c33 -5
72 -13 87 -19 31 -12 68 -60 91 -116 12 -29 16 -34 16 -18 1 13 -6 41 -15 63
-9 23 -14 44 -10 47 6 6 47 -2 101 -21 11 -4 -11 9 -50 30 -89 46 -103 58
-132 119 -18 37 -23 42 -19 20z"/>
<path d="M9765 18493 c6 -5 102 -63 215 -128 548 -316 707 -409 724 -426 18
-16 18 -21 6 -44 -16 -30 -69 -65 -97 -65 -21 0 -96 51 -311 209 -152 112
-139 98 76 -83 173 -146 172 -145 151 -220 -9 -31 -7 -58 6 -128 22 -112 16
-190 -24 -318 -43 -139 -44 -157 -21 -233 17 -54 31 -77 78 -124 32 -32 79
-75 105 -96 l47 -38 47 32 c92 64 173 169 173 226 0 37 -30 92 -58 107 -15 7
-54 21 -87 31 -135 38 -155 70 -155 245 0 82 -5 140 -17 181 -22 80 -13 102
62 153 90 61 126 150 83 203 -5 7 -119 68 -251 136 -552 284 -761 389 -752
380z m864 -1387 c7 -8 11 -27 9 -43 -2 -22 -8 -28 -28 -28 -17 0 -25 5 -25 18
0 10 -6 22 -14 26 -21 13 -5 41 22 41 14 0 30 -6 36 -14z"/>
<path d="M11205 18384 c-38 -8 -106 -32 -150 -53 l-80 -37 -70 33 c-99 46
-191 60 -275 42 l-65 -15 85 -1 c108 -1 170 -23 312 -109 59 -36 139 -80 176
-97 61 -29 75 -32 162 -31 78 1 117 8 219 38 143 41 195 45 252 15 35 -17 39
-18 31 -3 -18 32 -112 120 -152 143 l-40 22 0 -56 c0 -64 -13 -95 -38 -95 -28
0 -42 21 -42 65 0 50 -31 120 -60 135 -36 19 -187 21 -265 4z"/>
<path d="M10578 18293 c-15 -4 -15 -8 -3 -44 46 -129 181 -239 296 -239 56 0
58 17 6 61 -25 22 -56 56 -68 77 -38 63 -80 112 -108 126 -30 16 -98 26 -123
19z"/>
<path d="M11529 18076 c-163 -34 -219 -40 -264 -27 -21 6 -41 9 -43 7 -9 -10
51 -107 84 -134 62 -52 205 -82 386 -82 184 0 299 -35 352 -106 l28 -39 -5 75
c-3 55 -11 91 -32 134 -81 171 -243 226 -506 172z"/>
<path d="M10884 17828 c-42 -20 -58 -94 -28 -136 19 -27 43 -28 94 -2 71 36
90 92 44 129 -28 22 -75 26 -110 9z m76 -13 c18 -22 -14 -55 -52 -55 -36 0
-47 24 -23 50 22 24 58 26 75 5z"/>
<path d="M11480 17789 c0 -2 11 -26 25 -53 45 -90 28 -182 -47 -253 -18 -17
-69 -52 -112 -78 -94 -55 -152 -99 -167 -127 -11 -21 -11 -21 18 0 16 11 81
46 144 77 139 67 184 103 215 169 29 62 30 110 5 168 -15 35 -81 114 -81 97z"/>
<path d="M11585 17758 c20 -91 76 -158 215 -255 169 -120 220 -186 221 -290
l1 -58 20 25 c11 14 32 47 47 75 23 44 26 61 26 150 0 89 -3 106 -27 156 -35
71 -89 125 -154 155 -38 18 -303 73 -352 74 -2 0 0 -15 3 -32z"/>
<path d="M11264 17212 c-68 -24 -144 -73 -192 -126 -46 -50 -117 -154 -110
-161 2 -2 30 0 63 5 69 11 120 2 216 -40 81 -36 125 -38 170 -7 78 52 54 177
-34 177 -34 0 -77 -23 -77 -42 0 -7 6 -3 14 7 9 13 26 19 51 19 42 0 65 -22
65 -62 0 -59 -46 -89 -111 -72 -79 22 -91 120 -20 167 74 50 161 22 276 -87
80 -76 123 -100 180 -100 47 0 108 32 136 72 l24 33 -35 -27 c-68 -51 -137
-53 -187 -6 -14 13 -43 54 -65 91 -52 90 -90 131 -142 156 -53 26 -151 27
-222 3z"/>
<path d="M32950 16759 c-85 -132 -84 -128 -70 -163 9 -25 7 -30 -17 -49 -77
-60 -563 -517 -596 -560 -101 -133 -85 -338 35 -453 54 -52 782 -529 840 -550
25 -10 75 -16 119 -17 64 0 86 5 140 30 70 33 140 96 170 154 10 20 57 149
104 285 48 137 88 250 90 252 2 2 17 -5 33 -17 l30 -21 -44 -132 c-24 -73 -44
-142 -44 -153 0 -22 94 -90 113 -82 7 3 50 116 96 253 46 137 86 254 88 261 5
14 -85 82 -109 83 -10 0 -22 -9 -28 -20 -13 -25 -22 -25 -49 -2 -17 14 -20 23
-15 50 6 30 9 32 35 27 39 -9 61 6 99 65 25 39 31 56 25 77 -13 55 -208 222
-433 372 -145 98 -223 163 -393 328 -128 124 -127 124 -219 -18z m210 -45
c115 -116 218 -203 325 -274 140 -94 338 -247 400 -309 l59 -61 -19 -36 c-11
-20 -25 -39 -33 -41 -38 -15 -296 115 -514 259 -224 148 -429 313 -443 358 -4
13 12 47 55 110 33 49 64 90 68 90 4 0 50 -43 102 -96z m-174 -235 c13 -22
196 -160 324 -246 159 -105 295 -186 403 -237 56 -27 77 -42 77 -56 0 -10 -28
-98 -62 -196 -51 -147 -63 -175 -72 -159 -52 90 -139 138 -287 161 -101 15
-145 30 -168 57 -6 8 -18 48 -27 88 -20 100 -56 168 -123 234 -104 102 -201
153 -311 162 -38 3 -70 8 -70 11 0 2 10 13 23 24 12 11 47 43 77 71 30 29 77
71 104 95 l48 42 29 -21 c16 -11 31 -24 35 -30z m-407 -665 c33 -27 40 -58 17
-67 -20 -8 -94 31 -101 54 -15 45 36 53 84 13z m1274 -18 c16 -13 17 -19 6
-55 l-12 -40 -29 17 c-16 9 -26 22 -23 30 3 8 8 25 11 38 7 27 21 30 47 10z
m-977 -344 c18 -23 17 -52 -1 -52 -40 0 -94 48 -79 71 9 15 64 2 80 -19z m441
-124 c26 -24 30 -56 9 -64 -34 -13 -118 59 -101 87 11 16 65 3 92 -23z"/>
<path d="M26291 16118 c-1 -4 15 -126 35 -270 70 -520 164 -1243 164 -1265 0
-53 -69 -69 -148 -33 -30 14 -47 29 -56 52 -17 40 -25 180 -28 440 0 108 -4
202 -8 208 -3 6 -12 -121 -19 -282 -8 -178 -17 -302 -24 -317 -8 -15 -31 -31
-67 -44 -46 -17 -74 -39 -170 -137 -131 -132 -166 -154 -370 -232 -160 -61
-200 -84 -241 -141 -74 -101 -96 -180 -101 -364 l-4 -132 66 -20 c153 -45 268
-53 355 -23 40 14 56 26 83 66 42 63 42 102 -4 219 -42 110 -51 162 -34 212
17 53 62 99 159 165 86 58 127 96 215 202 60 73 87 80 177 43 131 -53 234 -40
293 38 l27 35 -20 109 c-108 583 -273 1460 -276 1468 -2 6 -4 7 -4 3z m-797
-2104 c25 -25 20 -81 -8 -100 -30 -19 -65 -15 -80 9 -9 15 -7 22 12 37 12 10
22 29 22 44 0 30 29 36 54 10z"/>
<path d="M18975 15674 c-46 -17 -89 -56 -111 -98 -8 -17 -21 -73 -30 -126 -8
-52 -17 -106 -19 -119 -13 -73 -19 -117 -17 -123 1 -4 -15 -10 -36 -13 -201
-29 -345 -112 -407 -235 -28 -55 -71 -190 -78 -244 -26 -198 164 -452 442
-591 272 -137 589 -169 816 -84 160 59 228 141 291 345 30 101 29 176 -7 267
-25 64 -96 171 -143 216 l-35 34 23 41 c13 23 32 57 43 76 104 185 107 193
108 260 0 122 -71 201 -189 208 -124 8 -183 -47 -246 -233 -23 -67 -45 -128
-50 -135 -6 -10 -25 -7 -89 15 -44 14 -81 30 -81 33 0 4 22 70 49 147 55 159
57 201 16 271 -52 89 -151 124 -250 88z m160 -80 c32 -21 55 -69 55 -115 0
-18 -25 -104 -56 -192 -30 -87 -54 -160 -52 -161 2 -2 32 -11 68 -20 62 -17
167 -57 201 -76 15 -8 25 15 75 158 65 188 74 206 118 229 98 51 216 -20 216
-129 0 -36 -7 -50 -107 -228 -11 -19 -36 -64 -56 -100 l-36 -65 60 -60 c72
-72 113 -133 139 -209 48 -135 1 -337 -102 -437 -54 -53 -160 -103 -260 -123
-347 -70 -828 126 -997 407 -75 126 -83 219 -31 362 38 104 77 161 141 204 61
43 170 79 258 87 39 4 73 10 75 13 2 3 18 91 36 195 33 200 45 236 85 262 54
36 114 35 170 -2z"/>
<path d="M18794 14872 c-34 -27 -54 -76 -54 -131 0 -42 4 -53 26 -70 15 -12
33 -21 40 -21 24 0 82 60 95 97 14 45 6 113 -17 130 -25 18 -65 16 -90 -5z"/>
<path d="M19327 14692 c-65 -40 -87 -164 -37 -204 34 -27 60 -22 100 21 47 49
59 106 33 160 -21 42 -53 50 -96 23z"/>
<path d="M5223 15478 c-50 -4 -133 -15 -185 -24 -56 -10 -162 -18 -266 -20
-96 -1 -177 -5 -180 -9 -4 -3 1 -49 10 -102 14 -84 23 -104 49 -115 3 -2 0
-77 -7 -168 -8 -91 -15 -228 -17 -306 l-2 -140 30 -49 c38 -61 107 -106 173
-112 67 -7 620 92 689 122 56 25 103 79 124 142 21 66 7 127 -74 307 -42 93
-76 171 -74 172 1 1 11 4 23 8 18 5 26 -5 64 -86 24 -51 45 -94 46 -96 7 -10
94 12 94 23 0 7 -34 84 -75 171 -80 170 -87 178 -147 155 -20 -7 -25 -15 -21
-30 4 -17 1 -21 -18 -21 -13 0 -30 9 -36 20 -11 17 -10 21 8 31 18 9 21 18 16
56 -2 25 -11 51 -18 58 -18 17 -91 22 -206 13z m171 -34 c10 -4 16 -18 16 -40
0 -19 -1 -34 -2 -34 -2 0 -36 -11 -76 -25 -178 -60 -486 -112 -622 -103 l-55
3 -12 50 c-6 28 -12 62 -12 78 l-1 27 148 0 c82 0 175 5 208 11 163 30 371 47
408 33z m48 -247 l55 -123 -43 6 c-58 9 -123 -10 -173 -50 -24 -18 -59 -39
-79 -46 -33 -11 -41 -10 -72 9 -99 59 -122 67 -200 67 -93 0 -160 -19 -211
-59 -21 -17 -39 -31 -41 -31 -2 0 0 39 4 88 3 48 7 99 7 115 1 24 5 27 34 27
115 0 419 51 562 94 44 13 85 24 91 25 6 0 35 -54 66 -122z m68 54 c14 -26 13
-28 -10 -34 -20 -5 -40 17 -40 42 0 19 39 12 50 -8z m-43 -467 c8 -21 -15 -35
-51 -32 -37 4 -45 25 -14 37 35 15 58 13 65 -5z m-583 -97 c16 -12 16 -14 3
-26 -18 -14 -83 -11 -81 4 1 9 41 34 55 35 3 0 13 -6 23 -13z m310 -45 c14 -8
-25 -32 -51 -32 -27 0 -31 25 -6 38 15 9 33 7 57 -6z"/>
<path d="M26857 15029 c94 -99 150 -231 173 -409 6 -52 18 -147 26 -210 34
-267 105 -372 380 -563 142 -99 179 -146 211 -267 l10 -35 13 40 c14 45 26
261 16 301 l-7 25 -35 -30 c-38 -34 -105 -71 -128 -71 -22 0 -46 28 -46 55 0
15 15 35 45 60 45 36 105 135 105 172 0 37 -92 175 -168 251 -78 80 -201 163
-297 203 l-52 21 -12 66 c-35 189 -113 324 -238 411 l-48 34 52 -54z"/>
<path d="M26715 14976 c-78 -134 -102 -320 -55 -441 24 -62 80 -130 102 -123
9 3 15 34 18 89 4 56 16 116 38 182 35 106 41 177 18 231 -15 35 -73 106 -87
106 -4 0 -20 -20 -34 -44z"/>
<path d="M27605 14305 c48 -73 75 -139 75 -182 0 -43 -28 -108 -81 -193 l-23
-35 33 30 c17 16 46 51 62 77 44 68 62 64 89 -18 12 -36 24 -63 26 -61 3 2 -5
53 -17 112 -22 106 -22 110 -5 159 10 28 29 68 42 88 13 21 24 41 24 45 0 9
-54 -52 -82 -93 -13 -19 -28 -34 -35 -34 -6 0 -27 21 -46 48 -20 26 -46 56
-58 67 l-23 20 19 -30z"/>
<path d="M26445 14291 c-65 -16 -105 -61 -105 -116 0 -53 149 -120 211 -96 41
15 52 36 47 91 -6 57 -33 94 -85 116 -18 8 -34 14 -35 13 -2 -1 -17 -4 -33 -8z
m102 -43 c46 -43 20 -91 -41 -79 -38 8 -75 64 -56 86 18 22 70 18 97 -7z"/>
<path d="M27037 14089 c-41 -63 -60 -124 -60 -194 1 -120 48 -218 224 -465
133 -187 173 -256 194 -339 18 -66 14 -117 -12 -178 l-14 -35 31 19 c78 46
174 169 204 261 50 153 15 316 -99 457 -57 71 -49 63 -200 196 -153 136 -201
188 -229 252 l-23 51 -16 -25z"/>
<path d="M26951 13548 c-33 -85 -101 -152 -178 -174 -85 -25 -157 -15 -298 41
-155 61 -239 85 -295 85 l-45 -1 75 -28 c41 -16 138 -60 215 -100 103 -52 157
-73 203 -81 183 -27 333 82 349 255 3 36 4 65 2 65 -2 0 -15 -28 -28 -62z"/>
<path d="M27024 13448 c-41 -49 -74 -130 -85 -206 -6 -38 -7 -143 -4 -247 8
-203 -1 -281 -40 -362 -25 -51 -82 -114 -128 -141 -19 -11 -9 -12 73 -9 75 4
107 10 155 31 92 41 157 97 214 181 99 148 110 283 37 454 -35 81 -175 331
-186 331 -5 0 -21 -15 -36 -32z"/>
<path d="M25608 13453 c-27 -4 -26 -5 35 -63 78 -73 110 -130 142 -256 33
-125 52 -162 102 -197 103 -73 244 0 229 118 -10 81 -115 128 -162 73 -19 -23
-19 -23 2 -5 31 26 71 21 105 -12 78 -78 -21 -196 -120 -144 -87 46 -94 185
-11 228 37 19 103 19 138 1 31 -16 84 -71 101 -103 27 -52 31 -123 16 -254 -8
-71 -12 -148 -9 -172 20 -126 110 -206 234 -206 l45 0 -55 19 c-66 24 -98 46
-127 90 -36 53 -31 112 22 246 25 62 50 137 56 165 41 190 -117 386 -367 455
-58 16 -315 28 -376 17z"/>
<path d="M9215 12098 c-36 -33 -64 -67 -63 -76 3 -15 -32 -36 -302 -178 -187
-100 -241 -179 -204 -304 12 -41 44 -82 208 -262 107 -117 207 -221 224 -231
70 -40 175 -30 235 23 18 15 72 87 121 159 49 72 92 131 96 131 4 0 12 -6 18
-13 9 -10 -1 -32 -38 -90 l-49 -77 25 -30 c14 -16 30 -27 36 -24 13 8 178 260
178 271 0 5 -13 21 -28 36 -21 20 -31 24 -40 15 -18 -18 -45 9 -32 33 8 13 18
17 38 13 21 -4 33 1 56 25 l29 31 -19 41 c-22 50 -94 148 -179 244 -73 83
-117 144 -174 242 -23 39 -49 74 -57 77 -8 3 -40 -19 -79 -56z m124 -60 c57
-95 108 -164 200 -269 72 -82 141 -184 141 -208 0 -9 -9 -22 -19 -28 -17 -11
-28 -6 -78 32 -111 82 -321 319 -373 419 l-25 48 50 44 c28 24 51 44 52 44 1
0 24 -37 52 -82z m-107 -145 c65 -91 186 -224 278 -308 36 -33 66 -65 68 -72
5 -17 -117 -195 -128 -188 -6 4 -10 12 -10 20 0 29 -57 79 -125 110 -39 18
-75 39 -81 46 -7 8 -14 48 -16 89 -8 121 -78 226 -180 270 l-51 22 79 44 c43
24 86 44 94 44 8 0 41 -35 72 -77z m-366 -279 c15 -22 15 -27 3 -34 -15 -10
-59 24 -59 47 0 23 39 14 56 -13z m731 -200 c8 -21 -23 -52 -38 -37 -8 8 -8
17 0 32 14 25 29 27 38 5z m-617 -64 c0 -11 -2 -20 -4 -20 -11 0 -36 33 -36
46 0 12 4 12 20 4 11 -6 20 -20 20 -30z m239 -124 c14 -17 7 -36 -14 -36 -18
0 -49 46 -40 60 7 12 34 0 54 -24z"/>
<path d="M2113 12052 c-68 -28 -130 -86 -159 -150 -23 -50 -25 -66 -21 -132 4
-62 17 -105 71 -244 37 -93 65 -170 64 -172 -13 -13 -222 -84 -228 -78 -4 5
-38 90 -76 189 -76 198 -107 245 -190 286 -208 100 -447 -85 -400 -311 11 -49
38 -103 107 -210 20 -30 39 -62 42 -70 4 -8 16 -28 27 -45 11 -16 24 -39 30
-50 6 -11 19 -34 29 -52 l20 -31 -28 -29 c-57 -60 -131 -165 -165 -235 -76
-155 -86 -290 -35 -442 81 -238 158 -340 324 -423 344 -174 925 -84 1340 206
106 74 109 76 183 151 175 175 265 359 261 528 -3 101 -34 208 -103 353 -51
108 -158 203 -290 258 -72 30 -248 71 -304 71 -36 0 -32 -11 -71 195 -36 187
-36 188 -50 240 -14 54 -62 127 -102 158 -74 55 -194 72 -276 39z m207 -89
c65 -43 76 -73 131 -362 27 -141 49 -257 49 -258 0 -2 18 -3 39 -3 58 0 188
-19 251 -37 138 -39 257 -120 312 -212 12 -20 29 -45 38 -56 42 -50 82 -195
82 -300 0 -449 -673 -909 -1302 -890 -63 2 -126 6 -140 9 -14 3 -47 11 -75 17
-95 21 -215 87 -281 153 -55 57 -64 72 -111 197 -63 164 -71 213 -49 306 29
131 103 257 216 371 l62 63 -85 142 c-46 78 -95 160 -107 182 -12 22 -38 66
-57 98 -47 78 -49 146 -6 216 72 118 248 121 324 5 14 -21 59 -127 99 -234 40
-107 77 -199 82 -204 4 -6 42 7 90 30 46 22 131 56 190 75 59 19 108 38 108
42 0 4 -37 103 -81 220 -89 231 -97 267 -79 321 40 122 194 177 300 109z"/>
<path d="M2467 10985 c-43 -32 -53 -133 -20 -202 25 -53 87 -103 129 -103 100
0 124 169 37 266 -47 53 -107 69 -146 39z"/>
<path d="M1753 10710 c-91 -84 -8 -300 115 -300 37 0 81 39 83 74 1 12 3 32 4
46 4 37 -31 123 -63 152 -55 52 -103 62 -139 28z"/>
<path d="M13630 11209 c0 -71 -2 -80 -17 -77 -10 2 -22 13 -28 24 -6 12 -14
17 -20 12 -35 -30 -94 -60 -135 -69 -56 -12 -86 -40 -95 -90 -6 -33 -4 -37 23
-48 17 -7 41 -11 54 -9 20 3 24 10 28 57 5 52 7 56 50 83 66 41 69 42 95 28
45 -24 55 -9 55 85 0 47 -2 85 -5 85 -3 0 -5 -36 -5 -81z m-239 -172 c-13 -13
-26 -3 -16 12 3 6 11 8 17 5 6 -4 6 -10 -1 -17z"/>
<path d="M13674 11184 c-9 -22 -13 -48 -9 -63 l7 -26 18 35 c21 38 26 90 9 90
-5 0 -17 -16 -25 -36z"/>
<path d="M13748 11106 c-7 -60 5 -106 35 -135 24 -21 24 -21 47 -3 31 25 22
60 -29 111 -22 22 -41 47 -43 58 -2 10 -7 -4 -10 -31z"/>
<path d="M13586 11063 c-8 -9 14 -33 30 -33 8 0 14 3 14 8 0 11 -37 32 -44 25z"/>
<path d="M13872 11000 c0 -14 2 -19 5 -12 2 6 2 18 0 25 -3 6 -5 1 -5 -13z"/>
<path d="M13716 10994 c-11 -29 -6 -55 24 -124 17 -38 30 -81 30 -96 l0 -29
27 28 c43 43 37 90 -23 171 -26 36 -49 66 -50 66 -1 0 -5 -7 -8 -16z"/>
<path d="M13830 10931 c0 -5 3 -17 6 -26 5 -13 8 -14 15 -3 13 20 11 38 -6 38
-8 0 -15 -4 -15 -9z"/>
<path d="M13400 10923 c0 -5 4 -13 9 -18 5 -6 13 -30 18 -55 6 -33 14 -46 28
-48 18 -2 19 -2 3 8 -28 17 -23 50 7 50 36 0 49 -32 36 -86 -8 -32 -8 -50 -1
-62 10 -15 10 -15 6 3 -3 11 3 33 14 50 31 47 26 87 -15 124 -20 17 -44 31
-55 31 -10 0 -25 3 -34 6 -9 3 -16 2 -16 -3z"/>
<path d="M13565 10886 c17 -14 35 -25 42 -26 6 0 17 -2 25 -5 7 -3 22 1 32 8
17 13 16 14 -13 9 -22 -3 -47 3 -74 18 l-42 22 30 -26z"/>
<path d="M13686 10849 c-7 -19 -17 -55 -20 -81 -4 -26 -17 -59 -28 -74 l-22
-27 30 7 c75 18 105 69 85 144 -17 65 -28 72 -45 31z"/>
<path d="M36053 10649 c-35 -7 -80 -33 -101 -58 -13 -16 -44 -80 -107 -216
l-32 -69 -129 -1 c-148 -1 -210 -19 -282 -81 -48 -41 -144 -182 -162 -238 -20
-62 -8 -197 25 -279 56 -140 174 -281 319 -386 177 -127 351 -191 527 -191
154 0 249 45 332 156 75 100 99 154 104 231 7 94 -19 191 -85 315 -2 3 38 46
88 95 130 125 155 163 155 238 -1 49 -6 68 -29 102 -56 84 -169 107 -253 51
-22 -15 -67 -67 -108 -126 -39 -56 -73 -102 -77 -102 -7 0 -97 60 -122 81 -4
4 23 51 62 106 88 125 94 137 95 192 1 117 -105 205 -220 180z m96 -67 c37
-20 71 -73 71 -110 0 -13 -7 -37 -16 -55 -13 -26 -126 -192 -166 -244 -6 -7 9
-21 47 -43 30 -17 79 -51 109 -76 30 -24 57 -44 60 -44 2 0 44 57 93 127 48
69 101 135 118 145 99 60 228 -48 184 -154 -7 -18 -70 -87 -139 -155 -120
-118 -124 -124 -111 -145 28 -45 69 -134 80 -173 48 -173 -54 -382 -217 -446
-76 -30 -235 -32 -332 -5 -372 106 -680 454 -646 729 6 46 18 73 58 132 71
105 113 140 199 166 71 22 153 23 259 4 l35 -7 80 164 c64 131 87 167 114 186
41 27 75 28 120 4z"/>
<path d="M35684 9985 c-92 -98 -16 -212 82 -122 70 64 63 157 -13 157 -28 0
-43 -8 -69 -35z"/>
<path d="M36113 9720 c-60 -36 -84 -128 -43 -165 62 -56 184 87 136 160 -20
30 -50 32 -93 5z"/>
<path d="M18125 10619 c-33 -4 -105 -15 -160 -23 -55 -9 -164 -16 -241 -16
-101 0 -144 -4 -152 -12 -16 -21 16 -179 40 -201 20 -17 20 -19 4 -240 -21
-290 -21 -361 3 -412 37 -79 123 -136 205 -137 76 -1 628 102 676 126 90 45
145 163 120 257 -6 23 -43 112 -81 197 -38 86 -69 159 -69 164 0 4 11 8 24 8
19 0 30 -14 65 -91 l43 -91 40 5 c22 3 44 9 49 14 8 8 -127 313 -147 333 -7 7
-28 8 -53 4 -38 -6 -42 -10 -38 -30 5 -30 -35 -39 -52 -11 -11 16 -9 21 9 34
18 13 20 21 14 61 -3 26 -13 53 -22 60 -18 14 -179 15 -277 1z m256 -40 c23
-36 10 -57 -45 -78 -146 -54 -386 -100 -567 -108 -154 -7 -141 -13 -154 77 -4
25 -8 52 -11 61 -4 15 12 16 148 16 99 0 188 6 253 17 216 37 359 42 376 15z
m36 -230 c28 -63 52 -116 52 -119 1 -3 -30 -5 -67 -5 -60 0 -74 -4 -118 -32
-27 -18 -68 -42 -91 -55 -48 -24 -45 -25 -153 40 -41 24 -54 27 -140 27 -105
0 -169 -21 -223 -73 l-28 -27 6 90 c3 50 8 104 11 121 l4 31 105 7 c126 8 353
47 472 82 48 14 90 27 92 30 13 13 30 -13 78 -117z m71 47 c6 -13 8 -27 5 -30
-14 -13 -42 -5 -48 14 -13 42 24 56 43 16z m-38 -471 c0 -16 -22 -25 -61 -25
-38 0 -39 25 -1 38 32 11 62 5 62 -13z m-580 -100 c0 -9 -12 -20 -26 -25 -31
-12 -35 -12 -53 -1 -12 8 -12 12 -2 25 18 21 81 22 81 1z m296 -36 c3 -6 0
-15 -7 -20 -18 -11 -69 -12 -69 -1 0 27 61 44 76 21z"/>
<path d="M31511 8589 c-1 -8 28 -170 63 -358 35 -189 62 -350 59 -357 -8 -22
-76 -17 -101 6 -12 12 -22 24 -23 28 0 4 -6 66 -14 137 l-12 130 -2 -125 c-1
-69 -5 -129 -9 -135 -4 -5 -25 -19 -46 -30 -21 -11 -57 -43 -78 -72 -48 -62
-104 -102 -201 -140 -85 -33 -147 -89 -165 -149 -6 -23 -12 -80 -12 -127 l0
-86 38 -11 c123 -35 213 -19 245 44 l20 38 -22 52 c-40 90 -45 120 -27 158 9
19 43 54 75 79 32 24 76 68 97 97 22 29 49 55 60 58 12 3 45 -2 74 -10 65 -19
120 -8 144 29 15 23 12 42 -69 382 -91 380 -93 387 -94 362z m-407 -1055 c9
-22 -12 -54 -34 -54 -28 0 -32 14 -14 48 15 32 37 34 48 6z"/>
<path d="M27030 8330 c-7 -28 -10 -63 -7 -77 4 -20 -16 -71 -75 -193 -92 -192
-102 -237 -68 -298 15 -26 38 -48 64 -62 44 -22 396 -100 453 -100 50 0 100
27 129 69 23 34 24 43 24 184 0 114 3 148 13 145 7 -3 16 -34 21 -74 10 -71
17 -84 49 -84 17 0 18 9 15 124 -2 69 -5 126 -8 129 -3 2 -17 7 -32 11 -22 5
-28 3 -28 -10 0 -20 -34 -14 -38 7 -2 9 5 19 16 21 24 7 35 64 15 83 -20 20
-112 52 -230 80 -58 14 -142 41 -186 60 -107 47 -112 46 -127 -15z m312 -69
c165 -42 212 -62 216 -89 2 -13 -3 -25 -13 -28 -23 -9 -196 15 -305 42 -86 22
-200 61 -200 70 0 2 5 25 11 52 l10 50 84 -34 c45 -19 134 -47 197 -63z m-95
-102 c46 -11 126 -26 176 -32 l92 -13 5 -87 c3 -48 2 -87 -1 -87 -4 0 -24 7
-44 16 -31 13 -46 13 -81 5 -81 -20 -96 -16 -147 43 -57 66 -119 92 -204 83
-52 -5 -54 -5 -47 16 3 12 17 43 31 68 l25 47 55 -19 c30 -11 93 -29 140 -40z
m331 -122 c2 -10 -3 -17 -12 -17 -10 0 -16 9 -16 21 0 24 23 21 28 -4z m-539
-191 c9 -11 9 -15 -1 -18 -21 -7 -48 3 -48 18 0 18 34 18 49 0z m382 -77 c23
-12 16 -29 -11 -29 -21 0 -34 15 -25 30 8 13 12 12 36 -1z m-201 -29 c0 -5 -9
-10 -19 -10 -11 0 -23 5 -26 10 -4 6 5 10 19 10 14 0 26 -4 26 -10z"/>
<path d="M31851 8128 c41 -44 77 -139 99 -268 23 -138 42 -189 89 -243 45 -50
154 -123 160 -105 2 7 19 30 37 50 64 72 57 105 -44 206 -43 43 -88 75 -139
100 -74 36 -76 38 -93 92 -9 30 -24 70 -33 87 -21 39 -75 103 -88 103 -6 0 0
-10 12 -22z"/>
<path d="M31739 8088 c-26 -61 -32 -177 -10 -218 17 -31 52 -70 63 -70 4 0 8
24 8 53 0 28 7 77 15 107 8 30 15 66 15 80 0 26 -44 100 -59 100 -5 0 -19 -24
-32 -52z"/>
<path d="M32302 7710 c19 -37 20 -48 11 -84 l-11 -40 18 24 c20 26 21 26 39
-5 9 -17 10 -13 4 20 -9 52 -9 74 1 105 l9 25 -21 -25 -20 -25 -25 24 -26 23
21 -42z"/>
<path d="M31604 7718 c-18 -8 -44 -46 -44 -64 0 -12 69 -44 96 -44 41 0 59 21
49 57 -6 22 -9 24 -12 10 -6 -23 -52 -19 -67 6 -9 15 -7 21 8 33 23 17 3 18
-30 2z"/>
<path d="M31945 7600 c-40 -78 -9 -165 121 -333 110 -143 128 -177 127 -245
l0 -53 32 31 c107 104 108 265 2 379 -18 18 -73 67 -123 107 -51 40 -102 89
-114 109 -12 19 -23 35 -26 35 -2 0 -10 -13 -19 -30z"/>
<path d="M32287 7514 c-16 -13 -35 -24 -43 -24 -22 0 -17 -16 12 -35 14 -9 34
-34 43 -56 10 -21 21 -36 24 -32 10 9 9 161 -1 166 -4 3 -20 -6 -35 -19z"/>
<path d="M11720 7507 c-61 -15 -100 -67 -100 -130 0 -31 30 -99 82 -184 l19
-32 -41 -26 c-66 -42 -64 -43 -111 42 -24 43 -55 90 -69 105 -29 28 -85 44
-124 34 -70 -17 -118 -104 -96 -170 6 -18 43 -73 84 -121 l73 -88 -40 -77
c-31 -61 -40 -91 -44 -146 -5 -65 -3 -73 32 -139 53 -100 80 -132 135 -160
143 -73 338 -46 542 73 177 104 297 272 298 417 0 48 -6 72 -32 124 -71 137
-141 184 -296 197 l-78 7 -38 107 c-24 70 -47 116 -64 133 -35 33 -87 46 -132
34z m68 -38 c26 -9 36 -23 60 -82 16 -40 39 -101 51 -137 l21 -65 87 -1 c105
0 163 -22 223 -83 65 -65 85 -114 84 -201 0 -95 -31 -162 -116 -255 -104 -114
-231 -185 -392 -220 -133 -29 -256 -6 -320 61 -16 16 -44 61 -63 99 -30 62
-34 76 -28 124 6 61 33 129 70 177 14 18 25 37 25 42 0 5 -38 57 -85 116 -64
81 -85 115 -85 137 0 43 17 69 56 85 60 25 90 2 159 -121 l59 -103 66 36 c36
20 77 43 92 52 l27 16 -56 100 c-43 75 -57 109 -57 140 -1 46 22 80 58 87 11
2 24 5 27 6 3 0 20 -4 37 -10z"/>
<path d="M11936 7004 c-33 -33 -8 -106 45 -135 28 -15 69 13 69 47 0 73 -73
130 -114 88z"/>
<path d="M11618 6829 c-21 -11 -24 -59 -7 -92 14 -28 49 -56 70 -57 20 0 49
31 49 54 0 32 -30 83 -56 95 -30 13 -34 13 -56 0z"/>
<path d="M31911 7294 c-46 -85 -122 -103 -252 -58 -89 30 -159 45 -159 33 0
-5 5 -9 12 -9 6 0 52 -19 102 -42 77 -36 101 -42 157 -43 56 0 71 4 101 27 22
17 43 46 53 72 24 62 15 75 -14 20z"/>
<path d="M31950 7236 c-20 -41 -21 -58 -18 -223 3 -195 -3 -222 -60 -270 l-27
-23 30 0 c17 1 47 7 68 14 142 51 219 199 173 332 -20 58 -116 214 -132 214
-7 0 -22 -20 -34 -44z"/>
<path d="M31177 7233 c-3 -5 14 -28 37 -51 34 -33 49 -58 67 -115 38 -119 106
-161 164 -102 31 30 32 66 3 91 l-21 19 17 -27 c22 -33 13 -66 -20 -78 -69
-27 -127 67 -74 120 43 43 121 14 152 -57 18 -40 20 -58 14 -128 -9 -107 9
-157 65 -185 21 -11 48 -20 61 -20 17 0 11 6 -22 23 -27 13 -51 34 -59 51 -12
27 -11 38 9 105 56 182 30 255 -120 332 -37 19 -65 24 -156 27 -62 2 -114 0
-117 -5z"/>
<path d="M21925 7191 c-78 -19 -131 -68 -161 -148 -9 -26 -20 -52 -24 -58 -3
-5 -24 -55 -46 -111 l-39 -101 -92 5 c-148 8 -267 -26 -357 -100 -38 -31 -123
-154 -162 -233 -15 -32 -19 -61 -19 -150 1 -97 4 -118 29 -180 91 -225 303
-431 571 -555 295 -138 601 -128 749 24 56 58 132 185 153 256 30 103 -1 267
-74 387 -18 31 -33 56 -33 58 0 3 29 35 125 139 112 120 135 160 135 236 0
150 -144 249 -283 196 -56 -21 -88 -57 -171 -188 -37 -60 -70 -108 -73 -108
-3 0 -38 21 -79 46 l-73 46 36 56 c131 204 139 222 133 307 -5 72 -80 159
-149 171 -20 3 -43 7 -51 9 -8 1 -28 -1 -45 -4z m113 -81 c65 -40 91 -125 57
-189 -8 -16 -50 -85 -95 -154 -80 -125 -90 -147 -69 -147 14 0 119 -61 189
-110 41 -28 58 -35 66 -27 6 7 46 68 89 137 96 152 116 175 166 188 80 20 157
-26 179 -107 12 -45 1 -95 -30 -129 -8 -9 -68 -74 -132 -144 -65 -70 -118
-130 -118 -133 0 -4 14 -26 31 -51 66 -96 114 -247 103 -324 -26 -183 -141
-332 -287 -373 -210 -60 -469 0 -717 166 -105 70 -257 225 -306 312 -57 103
-83 187 -84 272 0 83 15 123 83 229 57 88 99 125 174 155 52 21 74 24 207 24
l149 0 29 70 c108 261 132 307 167 331 44 30 104 32 149 4z"/>
<path d="M21546 6427 c-79 -75 -74 -187 9 -187 63 0 125 74 125 148 0 77 -71
98 -134 39z"/>
<path d="M22022 6125 c-94 -84 -62 -224 41 -182 64 27 108 116 86 173 -21 56
-71 60 -127 9z"/>
<path d="M32242 4528 c-38 -19 -44 -66 -40 -340 3 -253 3 -257 26 -281 13 -14
37 -31 53 -37 34 -15 34 -12 10 -83 -11 -30 -102 -383 -202 -784 -179 -714
-182 -730 -182 -833 0 -118 17 -199 63 -299 71 -151 187 -270 335 -341 150
-72 126 -71 1180 -68 l940 3 80 28 c114 40 209 100 291 183 137 138 216 356
199 544 -4 41 -65 307 -136 591 -71 284 -129 519 -129 523 0 3 33 6 74 6 l74
0 10 -37 c105 -397 145 -540 155 -550 8 -8 54 -13 135 -14 132 -1 152 5 152
48 0 48 -271 1038 -287 1051 -11 8 -54 12 -128 12 -136 0 -161 -11 -151 -70 3
-21 9 -45 12 -54 5 -14 -4 -16 -68 -16 l-74 0 -16 53 c-9 28 -19 59 -23 68 -4
12 4 19 32 27 87 28 103 60 103 210 0 106 -2 122 -21 146 -40 50 -138 83 -356
116 -197 30 -331 39 -733 50 -482 13 -656 33 -1070 120 -164 35 -275 45 -308
28z m371 -148 c370 -74 500 -89 877 -100 372 -10 502 -17 650 -31 151 -14 335
-45 413 -69 l68 -21 -3 -96 -3 -96 -40 -14 c-288 -102 -1257 -137 -1855 -67
-157 18 -314 48 -371 70 l-39 16 0 229 0 229 25 0 c14 0 139 -23 278 -50z
m-122 -570 c129 -25 410 -50 682 -61 431 -17 940 5 1236 55 l74 13 18 -41 c21
-50 195 -734 187 -741 -3 -3 -29 6 -59 20 -85 39 -190 59 -278 52 -115 -9
-183 -31 -331 -104 -74 -36 -155 -72 -179 -80 -57 -17 -153 -17 -194 1 -18 8
-83 64 -144 125 -102 100 -123 116 -215 160 -116 56 -174 73 -338 97 -241 35
-490 -15 -664 -135 -24 -17 -47 -31 -49 -31 -9 0 150 615 167 648 19 36 15 35
87 22z m2337 -281 c23 -92 23 -92 -58 -87 l-53 3 -18 70 c-26 99 -28 95 45 95
l64 0 20 -81z m-2124 -1308 c35 -33 33 -57 -6 -81 -44 -27 -100 -34 -157 -20
-88 21 -108 78 -41 113 53 27 170 20 204 -12z m1719 16 c90 -38 63 -105 -51
-123 -51 -8 -148 19 -162 46 -15 27 3 58 43 75 41 18 129 19 170 2z m-893
-272 c30 -16 60 -51 60 -72 0 -31 -154 -44 -216 -18 -29 12 -33 17 -25 32 11
22 51 59 71 66 29 11 81 7 110 -8z"/>
<path d="M4590 4449 c-139 -39 -299 -97 -460 -169 -136 -61 -267 -104 -455
-150 -185 -45 -212 -55 -220 -81 -7 -20 107 -278 128 -291 6 -4 22 -8 34 -8
24 0 27 -8 37 -85 5 -45 3 -31 84 -471 66 -358 82 -405 169 -485 88 -81 227
-118 339 -90 63 16 920 406 961 437 97 74 144 162 151 280 8 152 5 158 -295
538 -68 85 -123 157 -123 159 0 5 57 27 70 27 4 0 48 -51 99 -114 50 -63 98
-119 105 -125 10 -9 30 -4 80 18 36 17 66 35 66 40 0 9 -65 99 -79 111 -4 3
-69 82 -146 175 -76 94 -143 173 -148 176 -5 4 -37 -6 -71 -21 -62 -28 -63
-29 -54 -84 2 -14 -5 -23 -25 -30 -24 -9 -31 -6 -53 15 l-25 25 21 26 c27 35
25 58 -10 128 l-30 60 -58 -1 c-31 0 -73 -5 -92 -10z m132 -84 l22 -45 -23
-24 c-126 -134 -802 -446 -1051 -485 l-52 -8 -44 96 c-25 53 -46 104 -47 115
-2 17 18 24 153 58 217 54 272 72 465 153 94 40 209 87 257 104 81 30 257 79
286 81 7 0 22 -20 34 -45z m136 -326 l132 -164 -64 -7 c-101 -10 -173 -54
-258 -156 -112 -133 -136 -142 -278 -92 -51 18 -105 30 -135 30 -117 0 -285
-59 -376 -132 -23 -18 -59 -57 -80 -87 -22 -30 -39 -52 -39 -50 0 2 -14 76
-30 164 -35 189 -37 215 -12 215 33 0 308 99 452 163 217 96 431 209 510 268
14 10 30 17 35 16 6 -2 70 -77 143 -168z m89 104 l25 -32 -30 -15 c-28 -14
-30 -14 -56 13 -32 33 -33 45 -3 59 29 14 36 12 64 -25z m107 -719 c53 -20
-39 -106 -95 -89 -41 13 -11 67 47 85 16 4 30 9 31 9 1 1 8 -2 17 -5z m-359
-353 c0 -20 -45 -50 -80 -53 -26 -3 -30 0 -27 21 1 13 10 30 20 37 22 18 87
14 87 -5z m-480 -41 c3 -6 3 -19 0 -30 -15 -46 -130 -69 -130 -25 0 39 111 86
130 55z"/>
<path d="M15420 3915 c0 -5 5 -17 10 -25 5 -8 10 -10 10 -5 0 6 -5 17 -10 25
-5 8 -10 11 -10 5z"/>
<path d="M15440 3867 c0 -3 32 -92 70 -197 39 -105 68 -195 65 -201 -9 -13
-61 -11 -73 4 -6 7 -18 43 -28 80 -21 83 -27 82 -13 -2 11 -62 11 -63 -17 -89
-16 -15 -42 -47 -57 -72 -18 -29 -54 -63 -98 -93 -88 -61 -103 -90 -96 -175 4
-35 12 -71 18 -78 14 -17 81 -17 129 -1 53 18 62 56 27 118 -37 66 -35 91 12
142 21 23 48 62 61 86 21 42 23 43 62 38 52 -7 97 9 104 37 3 14 -23 87 -76
211 -76 177 -90 207 -90 192z m-172 -685 c3 -17 -2 -22 -18 -22 -16 0 -20 4
-16 16 3 9 6 20 6 26 0 19 25 1 28 -20z"/>
<path d="M15706 3649 c38 -41 54 -72 84 -163 27 -83 74 -138 143 -170 l51 -23
18 36 c10 19 18 46 18 59 0 43 -82 104 -177 132 -36 11 -48 22 -72 66 -17 28
-45 62 -63 75 l-33 22 31 -34z"/>
<path d="M15626 3644 c-9 -24 -7 -110 3 -137 10 -25 37 -57 49 -57 4 0 7 38 7
84 0 68 -4 88 -19 105 -23 25 -32 26 -40 5z"/>
<path d="M16023 3452 c15 -19 27 -42 27 -53 0 -12 4 -17 11 -13 6 3 16 0 21
-7 7 -10 8 -8 3 6 -5 11 -10 33 -13 49 -3 19 -7 24 -13 15 -6 -11 -14 -8 -35
11 l-28 25 27 -33z"/>
<path d="M15566 3358 c-18 -25 -13 -36 21 -49 33 -12 63 -3 63 20 0 14 -6 17
-32 13 -28 -4 -30 -2 -25 17 7 27 -8 27 -27 -1z"/>
<path d="M15810 3310 c0 -57 17 -83 115 -180 90 -89 115 -123 115 -162 l0 -23
20 25 c29 39 41 98 28 147 -14 55 -62 103 -152 153 -40 22 -81 49 -91 60 -27
30 -35 25 -35 -20z"/>
<path d="M16042 3310 c-7 -11 -20 -20 -30 -20 -11 0 -7 -6 15 -19 17 -11 36
-28 42 -38 9 -15 10 -12 11 17 0 40 -9 80 -19 80 -3 0 -12 -9 -19 -20z"/>
<path d="M15820 3121 c-23 -56 -46 -64 -168 -58 -108 6 -104 3 26 -24 55 -11
66 -11 98 4 34 17 70 74 61 100 -2 6 -9 -4 -17 -22z"/>
<path d="M15862 3113 c-17 -31 -15 -76 10 -184 l21 -96 -20 -42 c-24 -48 -16
-50 43 -16 73 43 105 144 68 220 -8 18 -37 56 -63 86 -46 51 -48 53 -59 32z"/>
<path d="M15381 3019 l-33 -10 40 -37 c21 -20 49 -56 60 -78 21 -42 38 -54 72
-54 18 0 50 35 50 54 0 6 -7 0 -16 -12 -27 -39 -84 -23 -84 23 0 29 19 45 52
45 43 0 75 -38 83 -96 15 -115 26 -132 91 -139 35 -5 36 -4 10 4 -59 20 -66
35 -60 130 6 79 5 88 -17 115 -45 58 -154 81 -248 55z"/>
<path d="M27450 2109 c-93 -42 -143 -116 -144 -214 0 -48 10 -91 53 -213 30
-84 52 -154 50 -155 -13 -10 -182 -66 -188 -63 -4 3 -31 75 -61 161 -62 175
-85 211 -162 249 -67 34 -135 34 -203 2 -127 -59 -171 -197 -106 -329 32 -65
87 -165 101 -182 16 -22 70 -125 70 -135 0 -6 -16 -28 -36 -48 -103 -106 -170
-235 -182 -355 -9 -89 4 -160 55 -292 32 -82 48 -110 97 -163 77 -82 187 -140
321 -168 11 -3 58 -8 105 -12 262 -25 559 51 816 208 80 50 102 67 200 165
168 167 235 335 199 502 -16 76 -60 197 -91 250 -74 127 -254 226 -451 250
-49 5 -53 8 -58 37 -2 17 -16 103 -30 190 -15 89 -34 175 -45 196 -61 119
-195 171 -310 119z m170 -64 c66 -34 77 -66 119 -320 l37 -220 44 -2 c201 -11
372 -91 448 -209 17 -27 36 -55 42 -62 33 -38 53 -129 54 -237 1 -104 -1 -114
-31 -177 -103 -218 -300 -380 -596 -489 -208 -77 -459 -98 -635 -53 -144 36
-274 129 -316 227 -88 200 -96 304 -34 437 36 79 104 170 171 231 l40 37 -31
51 c-18 28 -32 53 -32 55 0 2 -37 69 -82 147 -75 132 -82 149 -83 200 0 43 6
64 25 92 68 100 221 93 278 -13 11 -19 45 -110 77 -202 33 -93 63 -168 68
-168 6 0 37 13 71 28 34 16 104 42 156 57 52 16 96 29 97 30 1 0 -27 83 -62
183 -75 211 -78 224 -64 274 27 101 145 151 239 103z"/>
<path d="M27730 1195 c-21 -23 -25 -36 -24 -86 1 -70 33 -127 86 -152 48 -23
77 -12 98 35 39 88 -16 211 -101 224 -28 5 -38 1 -59 -21z"/>
<path d="M27163 1002 c-37 -6 -63 -48 -63 -102 0 -128 136 -224 185 -130 48
93 -33 247 -122 232z"/>
<path d="M20568 1849 c-73 -11 -211 -44 -307 -74 -117 -37 -194 -53 -340 -70
-127 -15 -161 -25 -161 -47 0 -6 14 -54 31 -109 25 -81 35 -100 53 -105 21 -5
22 -11 40 -302 11 -184 23 -319 33 -355 20 -74 74 -136 145 -167 94 -41 125
-36 497 84 183 59 351 119 373 132 74 47 127 167 113 256 -9 55 -17 71 -136
264 -55 89 -99 166 -99 171 0 6 10 13 22 16 25 7 28 4 98 -110 29 -46 53 -83
54 -83 22 0 96 36 96 46 0 14 -189 316 -214 342 -10 10 -21 9 -59 -4 -47 -16
-57 -30 -36 -51 9 -9 5 -14 -15 -19 -37 -9 -67 18 -48 44 23 32 24 43 12 88
-18 64 -36 70 -152 53z m103 -46 c4 -5 9 -21 11 -37 3 -28 -2 -32 -85 -74
-217 -109 -715 -246 -740 -205 -4 6 -17 44 -30 86 l-25 76 47 6 c142 17 316
48 386 70 232 73 410 105 436 78z m55 -225 c31 -51 67 -109 80 -129 l23 -37
-38 5 c-64 9 -132 -21 -210 -91 -39 -35 -82 -66 -96 -68 -15 -3 -52 8 -97 28
-61 28 -85 34 -146 34 -117 0 -254 -58 -299 -126 -8 -13 -17 -23 -19 -21 -2 2
-7 63 -10 135 l-7 131 39 6 c167 26 446 110 609 183 50 22 95 40 102 41 6 1
38 -41 69 -91z m104 10 c0 -4 -10 -10 -22 -14 -15 -4 -25 -1 -35 12 -18 25
-16 42 5 47 15 3 51 -27 52 -45z m7 -504 c8 -22 -22 -44 -59 -44 -56 0 -22 57
35 59 10 1 20 -6 24 -15z m-643 -190 c40 -15 -2 -58 -51 -52 -37 4 -40 24 -6
42 32 18 36 18 57 10z m351 -7 c20 -16 13 -23 -35 -37 -39 -11 -51 7 -20 32
27 22 31 22 55 5z"/>
<path d="M6619 1467 c-41 -27 -56 -67 -65 -174 -9 -102 -17 -123 -48 -123 -51
0 -139 -42 -186 -89 -38 -39 -49 -59 -69 -129 -40 -139 -17 -219 93 -327 137
-134 395 -215 591 -184 152 25 237 95 275 228 34 122 15 199 -77 301 l-46 51
49 92 c36 70 48 103 48 137 0 78 -53 130 -131 130 -79 0 -117 -48 -154 -195
-13 -50 -25 -54 -89 -31 -39 15 -39 15 -9 115 25 83 24 131 -2 165 -46 58
-122 72 -180 33z m132 -46 c36 -37 36 -52 -1 -175 -17 -55 -29 -101 -27 -102
4 -5 175 -54 185 -54 5 0 22 46 38 102 32 115 53 146 105 154 31 5 40 2 68
-27 29 -28 32 -36 26 -68 -4 -20 -29 -79 -56 -132 -27 -52 -49 -100 -49 -105
0 -5 23 -31 50 -57 68 -68 92 -120 92 -207 0 -174 -108 -267 -322 -277 -277
-14 -574 167 -593 361 -6 65 39 188 82 224 33 27 119 62 171 69 l55 8 17 125
c20 141 28 167 60 180 41 16 69 11 99 -19z"/>
<path d="M6553 975 c-12 -8 -27 -31 -33 -51 -11 -32 -10 -39 8 -63 24 -31 48
-30 80 5 26 30 30 85 6 108 -19 20 -34 20 -61 1z"/>
<path d="M6879 864 c-30 -32 -33 -99 -6 -119 58 -42 132 80 79 128 -26 24 -45
21 -73 -9z"/>
</g>
</svg>
